# xmcd
#
# Track frame offsets:
#	150
#	16917
#	38352
#	52204
#	72079
#	89503
#	104550
#	121284
#	135828
#	148756
#	162354
#	178385
#	194206
#	210943
#	227075
#	242765
#	258490
#	270734
#	283895
#	302906
#
# Disc length: 4262 seconds
#
# Revision: 0
# Processed by: cddbd v1.5.2PL0 Copyright (c) Steve Scherf et al.
# Submitted via: EasyCDDAExtractor 2010.6.0.0
#
DISCID=2f10a414
DTITLE=Various Artist - 100 Hits - Dance Classics cd 3
DYEAR=2011
DGENRE=Dance
TTITLE0=Lasgo - Something
TTITLE1=Paul Van Dyk - In Between
TTITLE2=Shapeshifters - Pusher
TTITLE3=E'Voke - Arms Of Loren
TTITLE4=Jeremy Healy and Amos - Argentina
TTITLE5=Amen UK - Passion
TTITLE6=Marc et Claude - I Need Your Lovin' (Like The Sunshine)
TTITLE7=DJ Quicksilver - Bellissima
TTITLE8=Chocolate Puma - Always And Forever
TTITLE9=Ferry Corsten - Rock Your Body Rock
TTITLE10=Rozalla - Everybody's Free
TTITLE11=Urban Cookie Collective - Feels Like Heaven
TTITLE12=Rage - Run To You
TTITLE13=Barthezz - Infected
TTITLE14=Diddy - Give Me Love
TTITLE15=Jeremy Healy and Amos - Stamp
TTITLE16=Milk Inc. - In My Eyes (DJ Philip Radio Edit)
TTITLE17=Velvet - Fix Me (Paul Rincon Full Vocal Mix)
TTITLE18=BBE - Seven Days And One Week
TTITLE19=Lange feat. The Morrighan - Follow Me
EXTD=
EXTT0=
EXTT1=
EXTT2=
EXTT3=
EXTT4=
EXTT5=
EXTT6=
EXTT7=
EXTT8=
EXTT9=
EXTT10=
EXTT11=
EXTT12=
EXTT13=
EXTT14=
EXTT15=
EXTT16=
EXTT17=
EXTT18=
EXTT19=
PLAYORDER=
